<?xml version="1.0" encoding="utf-8"?>
<!-- Generator: Adobe Illustrator 18.0.0, SVG Export Plug-In . SVG Version: 6.00 Build 0)  -->
<!DOCTYPE svg PUBLIC "-//W3C//DTD SVG 1.1//EN" "http://www.w3.org/Graphics/SVG/1.1/DTD/svg11.dtd">
<svg version="1.1" id="Layer_1" xmlns="http://www.w3.org/2000/svg" xmlns:xlink="http://www.w3.org/1999/xlink" x="0px" y="0px"
	 viewBox="0 0 612 494.4" enable-background="new 0 0 612 494.4" xml:space="preserve">
<g id="gsed6w_1_">
	<g>
		<g>
			<path fill="#FFFFFF" d="M529,110.9c-2.7,9.8-4.7,19.9-8.3,29.3c-5.2,13.5-11.5,26.6-17.3,39.9c-1.4,3.2-2.9,6.5-4.7,10.3
				c-17.2-27.8-34-55-51-82.6c-24.2,20.3-48.3,40.6-72.7,61c-4.7-4.9-11-5.3-17.5-5c-7.9,0.3-16.1-0.4-23.7,1.4
				c-13.2,3.1-19.6,13.9-24.7,25.5c-5.9,13.8-11.8,27.6-17.7,41.3c-6.7,15.7-13.5,31.4-20.5,47.8c11.5,0,22.7,0,33.8,0
				c0.1,0.4,0.3,0.7,0.4,1.1c-4.3,3.6-8.5,7.3-12.8,10.9c-10.1,8.3-20.4,16.5-30.5,24.8c-11.6,9.4-23.2,18.8-34.7,28.3
				c-8.3,6.7-16.5,13.5-24.8,20.3c-10.9,8.9-21.9,17.8-32.8,26.8c-2.1,1.7-2.8,0.7-4.1-1.1c-10-13.7-20.2-27.3-30.4-41
				c-15.8-21.3-31.5-42.5-47.3-63.8c-1.3-1.7-2.5-3.4-4.2-5.8c2-0.2,3.3-0.4,4.7-0.4c11.7,0,23.3-0.1,35,0c2.8,0,4.2-0.5,5.3-3.6
				c7-20.1,14.3-40.2,21.5-60.2c8.5-23.6,16.3-47.4,25.6-70.7c5.5-14,14.3-26.4,23.6-38.2c13.7-17.3,30.2-31,49.9-40.6
				c13.6-6.7,28.1-11.4,43.4-12.7c0.5,0,1-0.6,1.5-0.9c63,0,126,0,189,0c2.9,0.7,5.8,1.4,8.8,2c13,2.6,24.2,8.3,31.3,19.9
				c2.8,4.5,4,10.1,5.9,15.1C529,96.9,529,103.9,529,110.9z"/>
			<path fill="#FFFFFF" d="M83,403.9c2.6-9.3,4.9-18.7,8-27.9c3.3-9.5,7.4-18.7,11.7-29.4c21,26.5,41.3,52.3,61.6,77.9
				c19.6-15.8,39.3-31.6,59-47.5c14.4-11.7,28.7-23.4,43.2-35c1.5-1.2,3.7-1.9,5.7-2.1c6.6-0.5,13.2-0.4,19.8-1.1
				c10-1.1,17-7.2,21.2-15.7c6.8-13.7,12.7-27.8,18.9-41.8c2.9-6.5,5.8-13.1,8.6-19.7c0.8-1.8,1.3-3.6,2.2-6.1
				c-12.5,0-24.6,0-37.9,0c46.5-38.3,92-75.9,138.1-113.8c22.4,37.7,44.8,75.4,67.6,113.8c-2.4,0.1-3.9,0.3-5.5,0.3
				c-9.8,0-19.7,0.2-29.5-0.1c-3.7-0.1-5.5,1.1-7,4.6c-6.7,15.8-13.7,31.4-20.5,47.1c-6.4,14.8-12.9,29.6-19.2,44.4
				c-6.3,15-14.1,29.1-24.1,41.9c-12.7,16.2-27.7,30-45.8,40.1c-14.3,8-29.5,13.7-45.7,16.7c-7.7,1.4-15.7,1.6-23.5,2.4
				c-1.7,0.2-3.4,0.6-5,1c-49.3,0-98.7,0-148,0c-1.7-0.3-3.3-0.8-5-1c-6.2-0.7-12.4-0.8-18.5-2.2c-10.2-2.2-19.8-6-25.6-15.5
				c-2.1-3.5-3.3-7.5-5-11.3C83,417.2,83,410.6,83,403.9z"/>
		</g>
	</g>
</g>
</svg>
