<?xml version="1.0" encoding="utf-8"?>
<!-- Generator: Adobe Illustrator 18.0.0, SVG Export Plug-In . SVG Version: 6.00 Build 0)  -->
<!DOCTYPE svg PUBLIC "-//W3C//DTD SVG 1.1//EN" "http://www.w3.org/Graphics/SVG/1.1/DTD/svg11.dtd">
<svg version="1.1" id="Layer_1" xmlns="http://www.w3.org/2000/svg" xmlns:xlink="http://www.w3.org/1999/xlink" x="0px" y="0px"
	 viewBox="0 0 360 360" enable-background="new 0 0 360 360" xml:space="preserve">
<g>
	<g>
		<defs>
			<path id="SVGID_1_" d="M191.3,194.1H155v62.7h-24.2V109.5c0-6.2,5.9-12,12.4-12h48c31.1,0,51,20.6,51,48.4
				C242.3,173.5,222.4,194.1,191.3,194.1z M189.9,119.1H155v53.1h34.9c16.8,0,28.2-9.6,28.2-26.4C218.1,129,206.7,119.1,189.9,119.1
				z"/>
		</defs>
		<use xlink:href="#SVGID_1_"  overflow="visible" fill-rule="evenodd" clip-rule="evenodd" fill="#FFFFFF"/>
		<clipPath id="SVGID_2_">
			<use xlink:href="#SVGID_1_"  overflow="visible"/>
		</clipPath>
		<rect x="78.7" y="45.3" clip-path="url(#SVGID_2_)" fill="#FFFFFF" width="215.8" height="263.7"/>
	</g>
	<g>
		<defs>
			<path id="SVGID_3_" d="M245.6,256.8l-36.7-52.8c0,0-4.1,2-16.5,2h-11.9l35,50.8L245.6,256.8"/>
		</defs>
		<use xlink:href="#SVGID_3_"  overflow="visible" fill-rule="evenodd" clip-rule="evenodd" fill="#FFFFFF"/>
		<clipPath id="SVGID_4_">
			<use xlink:href="#SVGID_3_"  overflow="visible"/>
		</clipPath>
		<rect x="128.4" y="151.9" clip-path="url(#SVGID_4_)" fill="#FFFFFF" width="169.3" height="157.1"/>
	</g>
	<g>
		<defs>
			<path id="SVGID_5_" d="M48,180.3c-0.1-33.3,10.6-62,32.3-87.2L62.8,77.9c-25.6,29.6-38.1,63.3-38,102.5
				C25,266.6,95,336.2,181.2,336l-0.1-23.3C107.8,312.9,48.2,253.6,48,180.3"/>
		</defs>
		<use xlink:href="#SVGID_5_"  overflow="visible" fill-rule="evenodd" clip-rule="evenodd" fill="#FFFFFF"/>
		<clipPath id="SVGID_6_">
			<use xlink:href="#SVGID_5_"  overflow="visible"/>
		</clipPath>
		<rect x="-27.4" y="25.7" clip-path="url(#SVGID_6_)" fill="#FFFFFF" width="260.8" height="362.4"/>
	</g>
	<g>
		<defs>
			<path id="SVGID_7_" d="M312.3,198.1C312.3,198.1,312.3,198.1,312.3,198.1c-9.1,66-64.5,114.5-131.2,114.6h0l0.1,23.3
				c78.3-0.2,143.5-57.1,154.2-134.7L312.3,198.1"/>
		</defs>
		<use xlink:href="#SVGID_7_"  overflow="visible" fill-rule="evenodd" clip-rule="evenodd" fill="#FFFFFF"/>
		<clipPath id="SVGID_8_">
			<use xlink:href="#SVGID_7_"  overflow="visible"/>
		</clipPath>
		<rect x="129" y="146" clip-path="url(#SVGID_8_)" fill="#FFFFFF" width="258.6" height="242.2"/>
	</g>
	<g>
		<defs>
			<path id="SVGID_9_" d="M263.1,47.4l-12.3,19.8c0,0,0,0,0,0c45.3,28.1,68.7,78.1,61.5,130.9l23.1,3.2
				C343.9,139.2,316.4,80.5,263.1,47.4"/>
		</defs>
		<use xlink:href="#SVGID_9_"  overflow="visible" fill-rule="evenodd" clip-rule="evenodd" fill="#FFFFFF"/>
		<clipPath id="SVGID_10_">
			<use xlink:href="#SVGID_9_"  overflow="visible"/>
		</clipPath>
		<rect x="198.7" y="-4.7" clip-path="url(#SVGID_10_)" fill="#FFFFFF" width="190.4" height="258.2"/>
	</g>
	<g>
		<defs>
			<path id="SVGID_11_" d="M250.9,67.2l12.3-19.8C223.2,22.6,179.7,17,134.8,30.9l6.9,22.3l0,0C179.8,41.4,216.9,46.1,250.9,67.2"/>
		</defs>
		<use xlink:href="#SVGID_11_"  overflow="visible" fill-rule="evenodd" clip-rule="evenodd" fill="#FFFFFF"/>
		<clipPath id="SVGID_12_">
			<use xlink:href="#SVGID_11_"  overflow="visible"/>
		</clipPath>
		<rect x="82.6" y="-28.7" clip-path="url(#SVGID_12_)" fill="#FFFFFF" width="232.7" height="148.1"/>
	</g>
	<g>
		<defs>
			<path id="SVGID_13_" d="M141.7,53.1l-6.9-22.3c-29.9,9.2-51.6,23.4-72,47l17.6,15.2l0,0C97.8,73,116.2,61,141.7,53.1"/>
		</defs>
		<use xlink:href="#SVGID_13_"  overflow="visible" fill-rule="evenodd" clip-rule="evenodd" fill="#FFFFFF"/>
		<clipPath id="SVGID_14_">
			<use xlink:href="#SVGID_13_"  overflow="visible"/>
		</clipPath>
		<rect x="10.6" y="-21.3" clip-path="url(#SVGID_14_)" fill="#FFFFFF" width="183.2" height="166.6"/>
	</g>
</g>
</svg>
