<?xml version="1.0" encoding="utf-8"?>
<!-- Generator: Adobe Illustrator 18.0.0, SVG Export Plug-In . SVG Version: 6.00 Build 0)  -->
<!DOCTYPE svg PUBLIC "-//W3C//DTD SVG 1.1//EN" "http://www.w3.org/Graphics/SVG/1.1/DTD/svg11.dtd">
<svg version="1.1" id="Layer_1" xmlns="http://www.w3.org/2000/svg" xmlns:xlink="http://www.w3.org/1999/xlink" x="0px" y="0px"
	 viewBox="0 0 800 800" enable-background="new 0 0 800 800" xml:space="preserve">
<g>
	<path fill="#FFFFFF" d="M460.4,248c0,0-56.3-9.6-100.3,15.1c0,0,0,39.9,30.2,39.9c30.2,0,34.4-13.7,38.5-34.4
		c4.1-20.6,9.4-7.1,9.4-7.1L460.4,248z"/>
	<g>
		<path fill="#FFFFFF" d="M718,367.4l27-40.3L704,301.3l18.1-45l-45.5-16.7l8.3-47.8l-48-6.9l-1.8-48.5l-48.4,3.3l-11.8-47
			L528.1,106l-21.4-43.6l-42.9,22.7L434,47l-37.2,31.1L359.5,47l-29.9,38.2l-42.9-22.7L265.3,106l-46.6-13.3l-11.8,47l-48.4-3.3
			l-1.8,48.5l-48,6.9l8.3,47.8l-45.5,16.7l18.1,45l-41.1,25.8l27,40.3l-34.8,33.8l34.8,33.8l-27,40.3L89.5,501l-18.1,45l45.5,16.7
			l-8.3,47.8l48,6.9l1.8,48.5l48.4-3.3l11.8,47l46.6-13.3l21.4,43.6l42.9-22.7l29.9,38.2l37.2-31.1l37.2,31.1l29.9-38.2l42.9,22.7
			l21.4-43.6l46.6,13.3l11.8-47l48.4,3.3l1.8-48.5l48-6.9l-8.3-47.8l45.5-16.7L704,501l14.4-9c-1.3,0.5-2.7,0.9-4.2,1.4
			c-13.6,4.2-29.8,7.3-43.3,9.7c-42,110.7-149,189.6-274.2,189.6c-161.6,0-293.2-131.5-293.2-293.2c0-53,14.2-102.7,38.9-145.7
			c0,0,11.5-17.3,21.7-32.6c53.6-69.8,137.9-114.9,232.5-114.9c155.4,0,282.9,121.6,292.5,274.6c16.3,10.8,33.6,23.5,42.2,31.6
			c1.7,1.6,3.4,3.2,4.9,4.7l16.6-16.1L718,367.4z"/>
		<path fill="#FFFFFF" d="M544.8,520.6c-24.4-2.4-34,6-35.4,13.4c-20.4,106-13.6,49.1-23.3,113.2c66.1-23.9,119.9-73.6,149.4-136.8
			c-19.6,4-59.9,10.5-82.8,10.5C549.7,521,547.1,520.9,544.8,520.6z"/>
		<path fill="#FFFFFF" d="M293.8,260.5c1.2-5.3,4.5-11.5,8.6-17.6l-51.6-62.7c-5.9,3.9-11.7,8.1-17.2,12.5l58,77
			C292.2,266.8,293,263.8,293.8,260.5z"/>
		<path fill="#FFFFFF" d="M303.3,341.8c-10.5-18.2-8.1-27.3-8.1-27.3c-2.7-8.3-4.3-14.8-5.1-20.3l-69-91c-5.2,4.6-10.2,9.5-15,14.5
			l121.1,175.7C326.4,373.8,313.4,359.1,303.3,341.8z"/>
		<path fill="#FFFFFF" d="M317.7,428.3c2.9-2.9,4.9-6.1,6.4-9.4L194.8,230.3c-4.8,5.7-9.3,11.5-13.6,17.6l119.5,192.2
			C308.5,435.5,314.6,431.4,317.7,428.3z"/>
		<path fill="#FFFFFF" d="M133.1,399.5c0,41.2,9.5,80.2,26.4,115c25.7-18.2,58.6-33.3,66.7-36.8c8.9-3.9,37-17,60.1-29.5L171.3,263
			C147.1,302.8,133.1,349.6,133.1,399.5z"/>
		<path fill="#FFFFFF" d="M589.8,323.1c2.9,1,6.2,1.9,13.4,7.7c7,5.6,36.3,23.2,54.2,31.7C639.4,234.7,529.3,136,396.6,136
			c-34.3,0-67,6.6-97.1,18.5l40.7,45.8c8.1-6.9,19.7-13.8,37.3-15.9c27.7-3.3,43.5,7.7,51.2,12.9c7.7,5.3,8.6,17.7,8.6,17.7l3.3,1.9
			c0,0,3.3-1,10,9.1c6.7,10,16.8,21,16.8,21s16.3-0.5,24.4,1c8.1,1.4,24.9,7.7,29.6,11.5c3,2.4,16,11.3,28.7,22.7
			c-1.4,0-2.8,0-4.1,0c-0.8,0-1.5,0-2.2,0l-52.6,0c0,0-3.4,0.5-6.5,0.5c-3,0-3.8-0.5-3.8-0.5c-2.5-2-6.9-0.1-11.6,2.3
			c-2.1,1.1-4.3,2.2-5.7,2.5c-0.6,0.1-1.4,0.2-2.2,0.2c-3.3,0-6.6-1.1-6.7-1.1l-1.4-0.5l-1.1,1c-2.1,1.9-5.1,4.1-6.1,4.3l-0.5,0.1
			l-0.5,0.3c-0.4,0.3-10.3,7.8-10.3,29.9c0,12.8,8,20.5,9.5,21.8c1.2,1.5,8.6,10,20.1,13.8l0.7,0.2l0.7-0.1c0,0,2.5-0.5,5.8-0.5
			c3.8,0,7.3,0.6,10.2,1.8c0.6,0.3,1.2,0.5,1.8,0.7c-1.4,16.4-14.9,22.6-18.7,23.8c-4.3,1.4-9.6,7.2-12.9,10.5
			c-3.3,3.3-3.3,8.1-3.3,8.1c0.5,6.7-3.8,33-3.8,33c3.8-3.3,15.8-9.1,15.8-9.1c31.1-12,77-1.9,90.9,4.3c13.9,6.2,11.9,3.8,11.9,3.8
			c29.7-6.2,69.8-8.6,69.8-8.6c-38.6-32.2-64.2-48.9-78-57.1c5.3-1.6,12.2-5.7,17.6-15.5c5.4-9.8,8.5-22.5,8-34.7
			C586.1,323.3,587.9,322.5,589.8,323.1z M568.5,349.9c-8.5,15.3-20.4,14-21.3,13.8l-51.1-6.8c0,0-4.6-0.1-12.2-3.2
			c-3.6-1.5-7.7-2.2-12.2-2.2c-2.8,0-5.1,0.3-6.2,0.5c-10.5-3.7-17.2-12-17.2-12.1l-0.4-0.4c-0.1-0.1-7.9-6.8-7.9-18
			c0-17.1,6.5-24.2,8-25.5c2.2-0.8,5-2.9,6.7-4.3c2.3,0.6,6.9,1.3,10.2,0.6c2-0.5,4.4-1.7,6.9-3c2.1-1.1,5-2.6,6.3-2.7
			c1.4,0.9,3.5,1.4,6.7,1.4c3.4,0,7-0.5,6.9-0.5h52.2c0.7,0,1.5,0,2.3,0c6.4-0.1,15.1-0.2,21.6,7.4
			C579.5,308.5,577.3,334.1,568.5,349.9z"/>
		<path fill="#FFFFFF" d="M283.7,161.4c-6.6,3.2-13.1,6.6-19.4,10.3l48.1,58c6.4-7.7,12.8-14.3,16.3-18.1L283.7,161.4z"/>
	</g>
</g>
</svg>
